<svg xmlns="http://www.w3.org/2000/svg" xmlns:xlink="http://www.w3.org/1999/xlink" width="220" zoomAndPan="magnify" viewBox="0 0 165 74.999997" height="100" preserveAspectRatio="xMidYMid meet" version="1.0"><defs><g/></defs><g fill="#0b4141" fill-opacity="1"><g transform="translate(12.752346, 41.549996)"><g><path d="M 8.15625 -17.578125 C 8.6875 -17.578125 9.300781 -17.515625 10 -17.390625 C 10.695312 -17.265625 11.285156 -17.078125 11.765625 -16.828125 C 12.148438 -16.640625 12.394531 -16.46875 12.5 -16.3125 C 12.613281 -16.15625 12.671875 -15.960938 12.671875 -15.734375 C 12.671875 -14.660156 12.691406 -13.859375 12.734375 -13.328125 C 12.773438 -12.804688 12.804688 -12.492188 12.828125 -12.390625 C 12.867188 -12.117188 12.890625 -11.882812 12.890625 -11.6875 C 12.890625 -11.4375 12.804688 -11.238281 12.640625 -11.09375 C 12.484375 -10.945312 12.191406 -10.875 11.765625 -10.875 L 10.203125 -10.875 C 9.828125 -10.875 9.578125 -10.929688 9.453125 -11.046875 C 9.335938 -11.171875 9.257812 -11.382812 9.21875 -11.6875 C 9.144531 -12.34375 8.78125 -12.671875 8.125 -12.671875 C 7.53125 -12.671875 7.101562 -12.382812 6.84375 -11.8125 C 6.59375 -11.238281 6.46875 -10.242188 6.46875 -8.828125 C 6.46875 -7.398438 6.703125 -6.390625 7.171875 -5.796875 C 7.648438 -5.210938 8.410156 -4.921875 9.453125 -4.921875 C 10.015625 -4.921875 10.742188 -5.019531 11.640625 -5.21875 C 12.109375 -5.320312 12.414062 -5.375 12.5625 -5.375 C 12.78125 -5.375 12.957031 -5.304688 13.09375 -5.171875 C 13.238281 -5.035156 13.3125 -4.863281 13.3125 -4.65625 C 13.3125 -4.507812 13.203125 -4 12.984375 -3.125 C 12.859375 -2.625 12.773438 -2.125 12.734375 -1.625 C 12.691406 -1.125 12.648438 -0.796875 12.609375 -0.640625 C 12.578125 -0.492188 12.414062 -0.34375 12.125 -0.1875 C 11.84375 -0.03125 11.378906 0.0976562 10.734375 0.203125 C 10.085938 0.316406 9.257812 0.375 8.25 0.375 C 5.625 0.375 3.660156 -0.414062 2.359375 -2 C 1.066406 -3.582031 0.421875 -5.738281 0.421875 -8.46875 C 0.421875 -11.457031 1.085938 -13.722656 2.421875 -15.265625 C 3.753906 -16.804688 5.664062 -17.578125 8.15625 -17.578125 Z M 8.15625 -17.578125 "/></g></g></g><g fill="#0b4141" fill-opacity="1"><g transform="translate(26.323928, 41.549996)"><g><path d="M 3.734375 -17.953125 C 4.722656 -17.953125 5.460938 -17.816406 5.953125 -17.546875 C 6.453125 -17.273438 6.703125 -16.882812 6.703125 -16.375 C 6.703125 -15.75 6.421875 -15.332031 5.859375 -15.125 C 5.296875 -14.925781 4.585938 -14.828125 3.734375 -14.828125 C 2.828125 -14.828125 2.09375 -14.9375 1.53125 -15.15625 C 0.976562 -15.375 0.703125 -15.785156 0.703125 -16.390625 C 0.703125 -17.003906 1.007812 -17.414062 1.625 -17.625 C 2.238281 -17.84375 2.941406 -17.953125 3.734375 -17.953125 Z M 1.1875 -13.953125 C 1.332031 -13.953125 1.679688 -13.910156 2.234375 -13.828125 C 2.785156 -13.742188 3.285156 -13.703125 3.734375 -13.703125 C 4.117188 -13.703125 4.59375 -13.742188 5.15625 -13.828125 C 5.71875 -13.910156 6.066406 -13.953125 6.203125 -13.953125 C 6.441406 -13.953125 6.625 -13.878906 6.75 -13.734375 C 6.882812 -13.597656 6.953125 -13.40625 6.953125 -13.15625 C 6.953125 -12.96875 6.882812 -12.773438 6.75 -12.578125 C 6.644531 -12.398438 6.5625 -12.21875 6.5 -12.03125 C 6.445312 -11.851562 6.421875 -11.5625 6.421875 -11.15625 L 6.421875 -2.859375 C 6.421875 -2.359375 6.445312 -2 6.5 -1.78125 C 6.5625 -1.5625 6.65625 -1.363281 6.78125 -1.1875 C 6.789062 -1.175781 6.820312 -1.117188 6.875 -1.015625 C 6.925781 -0.921875 6.953125 -0.796875 6.953125 -0.640625 C 6.953125 -0.398438 6.882812 -0.210938 6.75 -0.078125 C 6.625 0.0546875 6.445312 0.125 6.21875 0.125 C 6.101562 0.125 5.828125 0.101562 5.390625 0.0625 C 4.953125 0.0195312 4.398438 0 3.734375 0 C 3.015625 0 2.441406 0.0195312 2.015625 0.0625 C 1.597656 0.101562 1.320312 0.125 1.1875 0.125 C 0.96875 0.125 0.789062 0.0507812 0.65625 -0.09375 C 0.53125 -0.238281 0.46875 -0.4375 0.46875 -0.6875 C 0.46875 -0.832031 0.488281 -0.953125 0.53125 -1.046875 C 0.582031 -1.140625 0.617188 -1.191406 0.640625 -1.203125 C 0.742188 -1.367188 0.828125 -1.554688 0.890625 -1.765625 C 0.953125 -1.984375 0.984375 -2.316406 0.984375 -2.765625 L 0.984375 -11.09375 C 0.984375 -11.53125 0.953125 -11.847656 0.890625 -12.046875 C 0.835938 -12.242188 0.753906 -12.421875 0.640625 -12.578125 C 0.597656 -12.640625 0.554688 -12.710938 0.515625 -12.796875 C 0.484375 -12.890625 0.46875 -13.003906 0.46875 -13.140625 C 0.46875 -13.367188 0.53125 -13.5625 0.65625 -13.71875 C 0.78125 -13.875 0.957031 -13.953125 1.1875 -13.953125 Z M 1.1875 -13.953125 "/></g></g></g><g fill="#0b4141" fill-opacity="1"><g transform="translate(33.714613, 41.549996)"><g><path d="M 1.25 -17.265625 C 1.59375 -17.265625 2 -17.242188 2.46875 -17.203125 C 2.945312 -17.160156 3.289062 -17.140625 3.5 -17.140625 C 4.007812 -17.140625 4.726562 -17.179688 5.65625 -17.265625 C 6.050781 -17.265625 6.25 -16.988281 6.25 -16.4375 C 6.25 -16.113281 6.238281 -15.828125 6.21875 -15.578125 C 6.175781 -13.773438 6.15625 -11.929688 6.15625 -10.046875 C 6.15625 -9.816406 6.171875 -9.671875 6.203125 -9.609375 C 6.234375 -9.554688 6.285156 -9.53125 6.359375 -9.53125 C 6.546875 -9.53125 6.765625 -9.679688 7.015625 -9.984375 C 7.273438 -10.296875 7.5 -10.660156 7.6875 -11.078125 C 7.875 -11.492188 7.96875 -11.847656 7.96875 -12.140625 C 7.96875 -12.253906 7.929688 -12.410156 7.859375 -12.609375 C 7.785156 -12.804688 7.75 -12.984375 7.75 -13.140625 C 7.75 -13.359375 7.820312 -13.539062 7.96875 -13.6875 C 8.113281 -13.84375 8.316406 -13.921875 8.578125 -13.921875 C 9.710938 -13.835938 10.5 -13.796875 10.9375 -13.796875 C 11.3125 -13.796875 12.117188 -13.835938 13.359375 -13.921875 C 13.554688 -13.921875 13.71875 -13.851562 13.84375 -13.71875 C 13.96875 -13.59375 14.03125 -13.421875 14.03125 -13.203125 C 14.03125 -13.054688 13.957031 -12.851562 13.8125 -12.59375 C 13.664062 -12.332031 13.570312 -12.140625 13.53125 -12.015625 C 13.457031 -11.867188 13.347656 -11.488281 13.203125 -10.875 C 12.773438 -9.582031 12.195312 -8.5625 11.46875 -7.8125 C 11.257812 -7.601562 11.15625 -7.445312 11.15625 -7.34375 C 11.15625 -7.269531 11.226562 -7.160156 11.375 -7.015625 C 11.53125 -6.867188 11.644531 -6.753906 11.71875 -6.671875 C 12.75 -5.628906 13.441406 -4.191406 13.796875 -2.359375 C 13.910156 -1.816406 14.054688 -1.425781 14.234375 -1.1875 C 14.378906 -0.976562 14.453125 -0.78125 14.453125 -0.59375 C 14.453125 -0.351562 14.390625 -0.171875 14.265625 -0.046875 C 14.140625 0.0664062 13.960938 0.125 13.734375 0.125 C 12.765625 0.0390625 11.945312 0 11.28125 0 C 10.738281 0 9.925781 0.0390625 8.84375 0.125 C 8.34375 0.125 8.09375 -0.117188 8.09375 -0.609375 C 8.09375 -0.734375 8.128906 -0.90625 8.203125 -1.125 C 8.273438 -1.300781 8.3125 -1.445312 8.3125 -1.5625 C 8.3125 -1.96875 8.191406 -2.429688 7.953125 -2.953125 C 7.722656 -3.472656 7.453125 -3.921875 7.140625 -4.296875 C 6.828125 -4.671875 6.570312 -4.859375 6.375 -4.859375 C 6.300781 -4.859375 6.242188 -4.828125 6.203125 -4.765625 C 6.171875 -4.710938 6.15625 -4.601562 6.15625 -4.4375 L 6.15625 -2.75 C 6.15625 -2.3125 6.1875 -1.988281 6.25 -1.78125 C 6.320312 -1.570312 6.410156 -1.390625 6.515625 -1.234375 C 6.554688 -1.160156 6.59375 -1.078125 6.625 -0.984375 C 6.664062 -0.898438 6.6875 -0.789062 6.6875 -0.65625 C 6.6875 -0.457031 6.628906 -0.273438 6.515625 -0.109375 C 6.398438 0.046875 6.21875 0.125 5.96875 0.125 C 4.90625 0.0390625 4.117188 0 3.609375 0 C 3.097656 0 2.296875 0.0390625 1.203125 0.125 C 0.972656 0.125 0.789062 0.0546875 0.65625 -0.078125 C 0.53125 -0.210938 0.46875 -0.40625 0.46875 -0.65625 C 0.46875 -0.851562 0.523438 -1.035156 0.640625 -1.203125 C 0.753906 -1.378906 0.835938 -1.566406 0.890625 -1.765625 C 0.953125 -1.960938 0.984375 -2.289062 0.984375 -2.75 L 0.984375 -14.453125 C 0.984375 -14.859375 0.953125 -15.160156 0.890625 -15.359375 C 0.828125 -15.554688 0.742188 -15.738281 0.640625 -15.90625 C 0.597656 -15.976562 0.554688 -16.054688 0.515625 -16.140625 C 0.484375 -16.234375 0.46875 -16.335938 0.46875 -16.453125 C 0.46875 -16.703125 0.535156 -16.898438 0.671875 -17.046875 C 0.804688 -17.191406 1 -17.265625 1.25 -17.265625 Z M 1.25 -17.265625 "/></g></g></g><g fill="#0b4141" fill-opacity="1"><g transform="translate(48.144044, 41.549996)"><g><path d="M 8.15625 -17.578125 C 8.6875 -17.578125 9.300781 -17.515625 10 -17.390625 C 10.695312 -17.265625 11.285156 -17.078125 11.765625 -16.828125 C 12.148438 -16.640625 12.394531 -16.46875 12.5 -16.3125 C 12.613281 -16.15625 12.671875 -15.960938 12.671875 -15.734375 C 12.671875 -14.660156 12.691406 -13.859375 12.734375 -13.328125 C 12.773438 -12.804688 12.804688 -12.492188 12.828125 -12.390625 C 12.867188 -12.117188 12.890625 -11.882812 12.890625 -11.6875 C 12.890625 -11.4375 12.804688 -11.238281 12.640625 -11.09375 C 12.484375 -10.945312 12.191406 -10.875 11.765625 -10.875 L 10.203125 -10.875 C 9.828125 -10.875 9.578125 -10.929688 9.453125 -11.046875 C 9.335938 -11.171875 9.257812 -11.382812 9.21875 -11.6875 C 9.144531 -12.34375 8.78125 -12.671875 8.125 -12.671875 C 7.53125 -12.671875 7.101562 -12.382812 6.84375 -11.8125 C 6.59375 -11.238281 6.46875 -10.242188 6.46875 -8.828125 C 6.46875 -7.398438 6.703125 -6.390625 7.171875 -5.796875 C 7.648438 -5.210938 8.410156 -4.921875 9.453125 -4.921875 C 10.015625 -4.921875 10.742188 -5.019531 11.640625 -5.21875 C 12.109375 -5.320312 12.414062 -5.375 12.5625 -5.375 C 12.78125 -5.375 12.957031 -5.304688 13.09375 -5.171875 C 13.238281 -5.035156 13.3125 -4.863281 13.3125 -4.65625 C 13.3125 -4.507812 13.203125 -4 12.984375 -3.125 C 12.859375 -2.625 12.773438 -2.125 12.734375 -1.625 C 12.691406 -1.125 12.648438 -0.796875 12.609375 -0.640625 C 12.578125 -0.492188 12.414062 -0.34375 12.125 -0.1875 C 11.84375 -0.03125 11.378906 0.0976562 10.734375 0.203125 C 10.085938 0.316406 9.257812 0.375 8.25 0.375 C 5.625 0.375 3.660156 -0.414062 2.359375 -2 C 1.066406 -3.582031 0.421875 -5.738281 0.421875 -8.46875 C 0.421875 -11.457031 1.085938 -13.722656 2.421875 -15.265625 C 3.753906 -16.804688 5.664062 -17.578125 8.15625 -17.578125 Z M 8.15625 -17.578125 "/></g></g></g><g fill="#0b4141" fill-opacity="1"><g transform="translate(61.715626, 41.549996)"><g><path d="M 8.125 -13.96875 C 8.425781 -13.96875 8.664062 -13.914062 8.84375 -13.8125 C 9.03125 -13.707031 9.125 -13.503906 9.125 -13.203125 L 9.09375 -12.765625 C 9.09375 -12.671875 9.078125 -12.441406 9.046875 -12.078125 C 9.015625 -11.722656 9 -11.3125 9 -10.84375 C 9 -10.519531 9.03125 -10.082031 9.09375 -9.53125 L 9.125 -9.015625 C 9.125 -8.859375 9.066406 -8.707031 8.953125 -8.5625 C 8.835938 -8.425781 8.660156 -8.359375 8.421875 -8.359375 C 8.242188 -8.359375 8.050781 -8.375 7.84375 -8.40625 C 7.644531 -8.445312 7.488281 -8.46875 7.375 -8.46875 C 7.03125 -8.46875 6.75 -8.347656 6.53125 -8.109375 C 6.320312 -7.878906 6.21875 -7.601562 6.21875 -7.28125 C 6.21875 -7.125 6.25 -6.882812 6.3125 -6.5625 C 6.382812 -6.09375 6.421875 -5.757812 6.421875 -5.5625 L 6.421875 -3.109375 C 6.421875 -2.234375 6.488281 -1.6875 6.625 -1.46875 C 6.769531 -1.21875 6.859375 -1.039062 6.890625 -0.9375 C 6.929688 -0.84375 6.953125 -0.742188 6.953125 -0.640625 C 6.953125 -0.398438 6.878906 -0.210938 6.734375 -0.078125 C 6.597656 0.0546875 6.414062 0.125 6.1875 0.125 C 5 0.0390625 4.179688 0 3.734375 0 C 3.296875 0 2.460938 0.0390625 1.234375 0.125 C 0.984375 0.125 0.789062 0.0507812 0.65625 -0.09375 C 0.53125 -0.238281 0.46875 -0.4375 0.46875 -0.6875 C 0.46875 -0.84375 0.488281 -0.96875 0.53125 -1.0625 C 0.582031 -1.15625 0.617188 -1.210938 0.640625 -1.234375 C 0.753906 -1.390625 0.835938 -1.5625 0.890625 -1.75 C 0.953125 -1.945312 0.984375 -2.25 0.984375 -2.65625 L 0.984375 -11.015625 C 0.984375 -11.484375 0.953125 -11.820312 0.890625 -12.03125 C 0.835938 -12.238281 0.753906 -12.421875 0.640625 -12.578125 C 0.617188 -12.597656 0.582031 -12.65625 0.53125 -12.75 C 0.488281 -12.84375 0.46875 -12.972656 0.46875 -13.140625 C 0.46875 -13.359375 0.53125 -13.539062 0.65625 -13.6875 C 0.78125 -13.84375 0.960938 -13.921875 1.203125 -13.921875 C 1.484375 -13.921875 1.828125 -13.898438 2.234375 -13.859375 C 2.640625 -13.816406 2.941406 -13.796875 3.140625 -13.796875 C 3.484375 -13.796875 3.800781 -13.816406 4.09375 -13.859375 C 4.394531 -13.898438 4.609375 -13.921875 4.734375 -13.921875 C 4.953125 -13.921875 5.09375 -13.851562 5.15625 -13.71875 C 5.226562 -13.582031 5.28125 -13.390625 5.3125 -13.140625 C 5.351562 -12.890625 5.410156 -12.765625 5.484375 -12.765625 C 5.566406 -12.765625 5.644531 -12.785156 5.71875 -12.828125 C 5.789062 -12.867188 5.898438 -12.972656 6.046875 -13.140625 C 6.585938 -13.691406 7.28125 -13.96875 8.125 -13.96875 Z M 8.125 -13.96875 "/></g></g></g><g fill="#0b4141" fill-opacity="1"><g transform="translate(71.085956, 41.549996)"><g><path d="M 6.84375 -14.171875 C 8.851562 -14.171875 10.367188 -13.535156 11.390625 -12.265625 C 12.421875 -10.992188 12.9375 -9.128906 12.9375 -6.671875 C 12.9375 -6.242188 12.875 -5.941406 12.75 -5.765625 C 12.632812 -5.585938 12.410156 -5.5 12.078125 -5.5 L 6.21875 -5.5 C 6.050781 -5.5 5.9375 -5.476562 5.875 -5.4375 C 5.8125 -5.394531 5.78125 -5.3125 5.78125 -5.1875 C 5.78125 -4.789062 6.019531 -4.460938 6.5 -4.203125 C 6.976562 -3.941406 7.566406 -3.8125 8.265625 -3.8125 C 8.910156 -3.8125 9.515625 -3.863281 10.078125 -3.96875 C 10.648438 -4.082031 10.976562 -4.144531 11.0625 -4.15625 C 11.5 -4.257812 11.78125 -4.3125 11.90625 -4.3125 C 12.082031 -4.3125 12.226562 -4.25 12.34375 -4.125 C 12.457031 -4.007812 12.515625 -3.894531 12.515625 -3.78125 C 12.515625 -3.632812 12.472656 -3.382812 12.390625 -3.03125 C 12.222656 -2.238281 12.125 -1.675781 12.09375 -1.34375 C 12.050781 -0.925781 12.007812 -0.660156 11.96875 -0.546875 C 11.9375 -0.441406 11.863281 -0.347656 11.75 -0.265625 C 11.53125 -0.0976562 11.039062 0.046875 10.28125 0.171875 C 9.53125 0.304688 8.617188 0.375 7.546875 0.375 C 5.140625 0.375 3.34375 -0.21875 2.15625 -1.40625 C 0.976562 -2.59375 0.390625 -4.394531 0.390625 -6.8125 C 0.390625 -9.164062 0.921875 -10.976562 1.984375 -12.25 C 3.054688 -13.53125 4.675781 -14.171875 6.84375 -14.171875 Z M 5.703125 -8.71875 C 5.703125 -8.5625 5.738281 -8.441406 5.8125 -8.359375 C 5.882812 -8.285156 6.03125 -8.25 6.25 -8.25 L 7.640625 -8.25 C 7.859375 -8.25 8.015625 -8.285156 8.109375 -8.359375 C 8.210938 -8.429688 8.265625 -8.5625 8.265625 -8.75 C 8.265625 -9.101562 8.160156 -9.441406 7.953125 -9.765625 C 7.742188 -10.085938 7.425781 -10.25 7 -10.25 C 6.570312 -10.25 6.25 -10.097656 6.03125 -9.796875 C 5.8125 -9.492188 5.703125 -9.132812 5.703125 -8.71875 Z M 5.703125 -8.71875 "/></g></g></g><g fill="#0b4141" fill-opacity="1"><g transform="translate(84.371584, 41.549996)"><g><path d="M 7.234375 -14.171875 C 8.910156 -14.171875 10.15625 -13.894531 10.96875 -13.34375 C 11.789062 -12.789062 12.300781 -12.179688 12.5 -11.515625 C 12.695312 -10.847656 12.796875 -10.132812 12.796875 -9.375 L 12.765625 -3.21875 C 12.765625 -2.445312 12.804688 -1.945312 12.890625 -1.71875 C 12.921875 -1.644531 12.992188 -1.507812 13.109375 -1.3125 C 13.285156 -1.050781 13.375 -0.828125 13.375 -0.640625 C 13.375 -0.453125 13.3125 -0.273438 13.1875 -0.109375 C 13.0625 0.046875 12.882812 0.125 12.65625 0.125 C 12.53125 0.125 12.257812 0.101562 11.84375 0.0625 C 11.4375 0.0195312 11.023438 0 10.609375 0 C 10.359375 0 10.140625 0.00390625 9.953125 0.015625 C 9.773438 0.0351562 9.578125 0.0546875 9.359375 0.078125 C 9.148438 0.109375 8.9375 0.125 8.71875 0.125 C 8.34375 0.125 8.132812 -0.0820312 8.09375 -0.5 C 8.0625 -0.769531 8.03125 -0.9375 8 -1 C 7.976562 -1.0625 7.9375 -1.09375 7.875 -1.09375 C 7.789062 -1.09375 7.675781 -1.019531 7.53125 -0.875 C 6.71875 -0.101562 5.785156 0.28125 4.734375 0.28125 C 3.796875 0.28125 3 0.0820312 2.34375 -0.3125 C 1.6875 -0.71875 1.203125 -1.253906 0.890625 -1.921875 C 0.578125 -2.585938 0.421875 -3.328125 0.421875 -4.140625 C 0.421875 -5.484375 0.925781 -6.523438 1.9375 -7.265625 C 2.957031 -8.003906 4.414062 -8.457031 6.3125 -8.625 C 6.75 -8.664062 7.050781 -8.703125 7.21875 -8.734375 C 7.394531 -8.773438 7.515625 -8.832031 7.578125 -8.90625 C 7.640625 -8.976562 7.671875 -9.101562 7.671875 -9.28125 C 7.671875 -9.820312 7.203125 -10.09375 6.265625 -10.09375 C 5.648438 -10.09375 5.097656 -10.035156 4.609375 -9.921875 C 4.117188 -9.804688 3.550781 -9.640625 2.90625 -9.421875 C 2.445312 -9.253906 2.164062 -9.171875 2.0625 -9.171875 C 1.863281 -9.171875 1.691406 -9.234375 1.546875 -9.359375 C 1.410156 -9.484375 1.34375 -9.628906 1.34375 -9.796875 C 1.34375 -9.890625 1.414062 -10.203125 1.5625 -10.734375 C 1.707031 -11.265625 1.820312 -12.085938 1.90625 -13.203125 C 1.9375 -13.492188 2.019531 -13.703125 2.15625 -13.828125 C 2.289062 -13.960938 2.507812 -14.03125 2.8125 -14.03125 C 3.007812 -14.03125 3.191406 -13.984375 3.359375 -13.890625 C 3.523438 -13.804688 3.644531 -13.765625 3.71875 -13.765625 C 3.800781 -13.765625 4.140625 -13.832031 4.734375 -13.96875 C 5.328125 -14.101562 6.160156 -14.171875 7.234375 -14.171875 Z M 5.28125 -4.59375 C 5.28125 -4.269531 5.378906 -4.007812 5.578125 -3.8125 C 5.785156 -3.613281 6.0625 -3.515625 6.40625 -3.515625 C 7.226562 -3.515625 7.640625 -4.054688 7.640625 -5.140625 C 7.640625 -5.460938 7.613281 -5.671875 7.5625 -5.765625 C 7.507812 -5.867188 7.375 -5.921875 7.15625 -5.921875 C 6.625 -5.921875 6.175781 -5.8125 5.8125 -5.59375 C 5.457031 -5.382812 5.28125 -5.050781 5.28125 -4.59375 Z M 5.28125 -4.59375 "/></g></g></g><g fill="#0b4141" fill-opacity="1"><g transform="translate(98.11913, 41.549996)"><g><path d="M 5.921875 -17.03125 C 6.441406 -17.03125 6.703125 -16.8125 6.703125 -16.375 L 6.703125 -14.40625 C 6.703125 -14.125 6.75 -13.9375 6.84375 -13.84375 C 6.945312 -13.75 7.085938 -13.703125 7.265625 -13.703125 C 7.390625 -13.703125 7.519531 -13.707031 7.65625 -13.71875 C 7.800781 -13.738281 7.941406 -13.75 8.078125 -13.75 C 8.304688 -13.75 8.488281 -13.6875 8.625 -13.5625 C 8.757812 -13.445312 8.828125 -13.28125 8.828125 -13.0625 C 8.773438 -12.269531 8.75 -11.796875 8.75 -11.640625 C 8.800781 -10.804688 8.828125 -10.285156 8.828125 -10.078125 C 8.828125 -9.859375 8.765625 -9.675781 8.640625 -9.53125 C 8.515625 -9.394531 8.34375 -9.328125 8.125 -9.328125 C 8.03125 -9.328125 7.878906 -9.34375 7.671875 -9.375 C 7.472656 -9.40625 7.328125 -9.421875 7.234375 -9.421875 C 6.878906 -9.421875 6.703125 -9.1875 6.703125 -8.71875 L 6.703125 -5.390625 C 6.703125 -5.003906 6.757812 -4.726562 6.875 -4.5625 C 6.988281 -4.394531 7.164062 -4.3125 7.40625 -4.3125 C 7.582031 -4.3125 7.789062 -4.34375 8.03125 -4.40625 C 8.28125 -4.476562 8.460938 -4.515625 8.578125 -4.515625 C 8.753906 -4.515625 8.90625 -4.457031 9.03125 -4.34375 C 9.164062 -4.238281 9.234375 -4.109375 9.234375 -3.953125 C 9.234375 -3.929688 9.179688 -3.664062 9.078125 -3.15625 C 8.984375 -2.644531 8.914062 -2.117188 8.875 -1.578125 C 8.84375 -1.035156 8.8125 -0.703125 8.78125 -0.578125 C 8.75 -0.453125 8.691406 -0.332031 8.609375 -0.21875 C 8.472656 -0.0390625 8.144531 0.0976562 7.625 0.203125 C 7.101562 0.316406 6.515625 0.375 5.859375 0.375 C 4.328125 0.375 3.175781 0.0234375 2.40625 -0.671875 C 1.632812 -1.378906 1.25 -2.410156 1.25 -3.765625 C 1.25 -4.160156 1.273438 -4.859375 1.328125 -5.859375 C 1.378906 -6.867188 1.40625 -7.648438 1.40625 -8.203125 C 1.40625 -8.671875 1.375 -8.992188 1.3125 -9.171875 C 1.257812 -9.359375 1.140625 -9.453125 0.953125 -9.453125 C 0.890625 -9.453125 0.828125 -9.445312 0.765625 -9.4375 C 0.710938 -9.425781 0.65625 -9.421875 0.59375 -9.421875 C 0.488281 -9.421875 0.378906 -9.46875 0.265625 -9.5625 C 0.160156 -9.65625 0.109375 -9.816406 0.109375 -10.046875 C 0.109375 -10.179688 0.125 -10.425781 0.15625 -10.78125 C 0.1875 -11.132812 0.203125 -11.421875 0.203125 -11.640625 C 0.203125 -11.785156 0.1875 -12.007812 0.15625 -12.3125 C 0.125 -12.625 0.109375 -12.882812 0.109375 -13.09375 C 0.109375 -13.3125 0.179688 -13.476562 0.328125 -13.59375 C 0.472656 -13.707031 0.632812 -13.765625 0.8125 -13.765625 L 1.578125 -13.75 C 2.273438 -13.75 2.894531 -13.988281 3.4375 -14.46875 C 3.976562 -14.957031 4.523438 -15.597656 5.078125 -16.390625 C 5.273438 -16.671875 5.429688 -16.847656 5.546875 -16.921875 C 5.671875 -16.992188 5.796875 -17.03125 5.921875 -17.03125 Z M 5.921875 -17.03125 "/></g></g></g><g fill="#0b4141" fill-opacity="1"><g transform="translate(107.423474, 41.549996)"><g><path d="M 3.734375 -17.953125 C 4.722656 -17.953125 5.460938 -17.816406 5.953125 -17.546875 C 6.453125 -17.273438 6.703125 -16.882812 6.703125 -16.375 C 6.703125 -15.75 6.421875 -15.332031 5.859375 -15.125 C 5.296875 -14.925781 4.585938 -14.828125 3.734375 -14.828125 C 2.828125 -14.828125 2.09375 -14.9375 1.53125 -15.15625 C 0.976562 -15.375 0.703125 -15.785156 0.703125 -16.390625 C 0.703125 -17.003906 1.007812 -17.414062 1.625 -17.625 C 2.238281 -17.84375 2.941406 -17.953125 3.734375 -17.953125 Z M 1.1875 -13.953125 C 1.332031 -13.953125 1.679688 -13.910156 2.234375 -13.828125 C 2.785156 -13.742188 3.285156 -13.703125 3.734375 -13.703125 C 4.117188 -13.703125 4.59375 -13.742188 5.15625 -13.828125 C 5.71875 -13.910156 6.066406 -13.953125 6.203125 -13.953125 C 6.441406 -13.953125 6.625 -13.878906 6.75 -13.734375 C 6.882812 -13.597656 6.953125 -13.40625 6.953125 -13.15625 C 6.953125 -12.96875 6.882812 -12.773438 6.75 -12.578125 C 6.644531 -12.398438 6.5625 -12.21875 6.5 -12.03125 C 6.445312 -11.851562 6.421875 -11.5625 6.421875 -11.15625 L 6.421875 -2.859375 C 6.421875 -2.359375 6.445312 -2 6.5 -1.78125 C 6.5625 -1.5625 6.65625 -1.363281 6.78125 -1.1875 C 6.789062 -1.175781 6.820312 -1.117188 6.875 -1.015625 C 6.925781 -0.921875 6.953125 -0.796875 6.953125 -0.640625 C 6.953125 -0.398438 6.882812 -0.210938 6.75 -0.078125 C 6.625 0.0546875 6.445312 0.125 6.21875 0.125 C 6.101562 0.125 5.828125 0.101562 5.390625 0.0625 C 4.953125 0.0195312 4.398438 0 3.734375 0 C 3.015625 0 2.441406 0.0195312 2.015625 0.0625 C 1.597656 0.101562 1.320312 0.125 1.1875 0.125 C 0.96875 0.125 0.789062 0.0507812 0.65625 -0.09375 C 0.53125 -0.238281 0.46875 -0.4375 0.46875 -0.6875 C 0.46875 -0.832031 0.488281 -0.953125 0.53125 -1.046875 C 0.582031 -1.140625 0.617188 -1.191406 0.640625 -1.203125 C 0.742188 -1.367188 0.828125 -1.554688 0.890625 -1.765625 C 0.953125 -1.984375 0.984375 -2.316406 0.984375 -2.765625 L 0.984375 -11.09375 C 0.984375 -11.53125 0.953125 -11.847656 0.890625 -12.046875 C 0.835938 -12.242188 0.753906 -12.421875 0.640625 -12.578125 C 0.597656 -12.640625 0.554688 -12.710938 0.515625 -12.796875 C 0.484375 -12.890625 0.46875 -13.003906 0.46875 -13.140625 C 0.46875 -13.367188 0.53125 -13.5625 0.65625 -13.71875 C 0.78125 -13.875 0.957031 -13.953125 1.1875 -13.953125 Z M 1.1875 -13.953125 "/></g></g></g><g fill="#0b4141" fill-opacity="1"><g transform="translate(114.814159, 41.549996)"><g><path d="M 0.328125 -13.921875 C 1.753906 -13.835938 2.6875 -13.796875 3.125 -13.796875 C 3.675781 -13.796875 4.207031 -13.816406 4.71875 -13.859375 C 5.238281 -13.898438 5.550781 -13.921875 5.65625 -13.921875 C 5.863281 -13.921875 6.03125 -13.859375 6.15625 -13.734375 C 6.28125 -13.609375 6.34375 -13.445312 6.34375 -13.25 C 6.34375 -13.144531 6.296875 -12.957031 6.203125 -12.6875 C 6.054688 -12.34375 5.984375 -12.019531 5.984375 -11.71875 C 5.984375 -11.3125 6.035156 -10.628906 6.140625 -9.671875 C 6.253906 -8.722656 6.378906 -7.867188 6.515625 -7.109375 C 6.660156 -6.347656 6.789062 -5.96875 6.90625 -5.96875 C 7.039062 -5.96875 7.132812 -6.019531 7.1875 -6.125 C 7.25 -6.238281 7.300781 -6.429688 7.34375 -6.703125 C 7.539062 -7.691406 7.707031 -8.707031 7.84375 -9.75 C 7.976562 -10.789062 8.046875 -11.457031 8.046875 -11.75 C 8.046875 -11.957031 7.984375 -12.222656 7.859375 -12.546875 C 7.734375 -12.804688 7.671875 -13.007812 7.671875 -13.15625 C 7.671875 -13.394531 7.738281 -13.582031 7.875 -13.71875 C 8.019531 -13.851562 8.195312 -13.921875 8.40625 -13.921875 C 8.59375 -13.921875 8.789062 -13.910156 9 -13.890625 C 9.207031 -13.878906 9.457031 -13.859375 9.75 -13.828125 C 10.050781 -13.804688 10.34375 -13.796875 10.625 -13.796875 C 10.863281 -13.796875 11.066406 -13.800781 11.234375 -13.8125 C 11.410156 -13.832031 11.601562 -13.851562 11.8125 -13.875 C 12.03125 -13.90625 12.242188 -13.921875 12.453125 -13.921875 C 12.660156 -13.921875 12.828125 -13.84375 12.953125 -13.6875 C 13.085938 -13.539062 13.15625 -13.363281 13.15625 -13.15625 C 13.15625 -13.039062 13.132812 -12.945312 13.09375 -12.875 C 13.0625 -12.800781 12.960938 -12.664062 12.796875 -12.46875 C 12.671875 -12.289062 12.566406 -12.082031 12.484375 -11.84375 C 12.398438 -11.601562 12.296875 -11.109375 12.171875 -10.359375 C 11.847656 -8.453125 11.546875 -6.953125 11.265625 -5.859375 C 10.984375 -4.765625 10.675781 -3.671875 10.34375 -2.578125 C 10.09375 -1.796875 9.875 -1.207031 9.6875 -0.8125 C 9.507812 -0.414062 9.34375 -0.160156 9.1875 -0.046875 C 9.039062 0.0664062 8.882812 0.125 8.71875 0.125 C 7.476562 0.0390625 6.695312 0 6.375 0 C 6.15625 0 5.8125 0.0195312 5.34375 0.0625 C 4.875 0.101562 4.441406 0.125 4.046875 0.125 C 3.796875 0.125 3.585938 -0.0078125 3.421875 -0.28125 C 3.265625 -0.5625 3.0625 -1.054688 2.8125 -1.765625 C 2.269531 -3.253906 1.828125 -4.742188 1.484375 -6.234375 C 1.148438 -7.722656 0.847656 -9.242188 0.578125 -10.796875 C 0.515625 -11.046875 0.460938 -11.28125 0.421875 -11.5 C 0.390625 -11.726562 0.351562 -11.921875 0.3125 -12.078125 C 0.28125 -12.191406 0.195312 -12.335938 0.0625 -12.515625 C -0.0195312 -12.628906 -0.0859375 -12.738281 -0.140625 -12.84375 C -0.191406 -12.945312 -0.21875 -13.066406 -0.21875 -13.203125 C -0.21875 -13.390625 -0.164062 -13.554688 -0.0625 -13.703125 C 0.0390625 -13.847656 0.171875 -13.921875 0.328125 -13.921875 Z M 0.328125 -13.921875 "/></g></g></g><g fill="#0b4141" fill-opacity="1"><g transform="translate(127.505885, 41.549996)"><g><path d="M 6.84375 -14.171875 C 8.851562 -14.171875 10.367188 -13.535156 11.390625 -12.265625 C 12.421875 -10.992188 12.9375 -9.128906 12.9375 -6.671875 C 12.9375 -6.242188 12.875 -5.941406 12.75 -5.765625 C 12.632812 -5.585938 12.410156 -5.5 12.078125 -5.5 L 6.21875 -5.5 C 6.050781 -5.5 5.9375 -5.476562 5.875 -5.4375 C 5.8125 -5.394531 5.78125 -5.3125 5.78125 -5.1875 C 5.78125 -4.789062 6.019531 -4.460938 6.5 -4.203125 C 6.976562 -3.941406 7.566406 -3.8125 8.265625 -3.8125 C 8.910156 -3.8125 9.515625 -3.863281 10.078125 -3.96875 C 10.648438 -4.082031 10.976562 -4.144531 11.0625 -4.15625 C 11.5 -4.257812 11.78125 -4.3125 11.90625 -4.3125 C 12.082031 -4.3125 12.226562 -4.25 12.34375 -4.125 C 12.457031 -4.007812 12.515625 -3.894531 12.515625 -3.78125 C 12.515625 -3.632812 12.472656 -3.382812 12.390625 -3.03125 C 12.222656 -2.238281 12.125 -1.675781 12.09375 -1.34375 C 12.050781 -0.925781 12.007812 -0.660156 11.96875 -0.546875 C 11.9375 -0.441406 11.863281 -0.347656 11.75 -0.265625 C 11.53125 -0.0976562 11.039062 0.046875 10.28125 0.171875 C 9.53125 0.304688 8.617188 0.375 7.546875 0.375 C 5.140625 0.375 3.34375 -0.21875 2.15625 -1.40625 C 0.976562 -2.59375 0.390625 -4.394531 0.390625 -6.8125 C 0.390625 -9.164062 0.921875 -10.976562 1.984375 -12.25 C 3.054688 -13.53125 4.675781 -14.171875 6.84375 -14.171875 Z M 5.703125 -8.71875 C 5.703125 -8.5625 5.738281 -8.441406 5.8125 -8.359375 C 5.882812 -8.285156 6.03125 -8.25 6.25 -8.25 L 7.640625 -8.25 C 7.859375 -8.25 8.015625 -8.285156 8.109375 -8.359375 C 8.210938 -8.429688 8.265625 -8.5625 8.265625 -8.75 C 8.265625 -9.101562 8.160156 -9.441406 7.953125 -9.765625 C 7.742188 -10.085938 7.425781 -10.25 7 -10.25 C 6.570312 -10.25 6.25 -10.097656 6.03125 -9.796875 C 5.8125 -9.492188 5.703125 -9.132812 5.703125 -8.71875 Z M 5.703125 -8.71875 "/></g></g></g><g fill="#0b4141" fill-opacity="1"><g transform="translate(140.791513, 41.549996)"><g><path d="M 5.65625 -14.171875 C 6.382812 -14.171875 7.023438 -14.101562 7.578125 -13.96875 C 8.128906 -13.832031 8.429688 -13.765625 8.484375 -13.765625 C 8.535156 -13.765625 8.648438 -13.800781 8.828125 -13.875 C 9.003906 -13.945312 9.15625 -13.984375 9.28125 -13.984375 C 9.851562 -13.984375 10.140625 -13.691406 10.140625 -13.109375 C 10.140625 -12.523438 10.148438 -12.101562 10.171875 -11.84375 C 10.191406 -11.59375 10.265625 -11.203125 10.390625 -10.671875 C 10.472656 -10.316406 10.515625 -10.070312 10.515625 -9.9375 C 10.515625 -9.769531 10.445312 -9.628906 10.3125 -9.515625 C 10.1875 -9.398438 10.039062 -9.34375 9.875 -9.34375 C 9.75 -9.34375 9.445312 -9.441406 8.96875 -9.640625 C 8.601562 -9.785156 8.28125 -9.898438 8 -9.984375 C 7.726562 -10.078125 7.453125 -10.125 7.171875 -10.125 C 6.921875 -10.125 6.703125 -10.066406 6.515625 -9.953125 C 6.335938 -9.847656 6.25 -9.675781 6.25 -9.4375 C 6.25 -9.25 6.316406 -9.09375 6.453125 -8.96875 C 6.597656 -8.84375 6.929688 -8.695312 7.453125 -8.53125 C 8.691406 -8.164062 9.613281 -7.671875 10.21875 -7.046875 C 10.820312 -6.421875 11.125 -5.53125 11.125 -4.375 C 11.125 -3.4375 10.90625 -2.609375 10.46875 -1.890625 C 10.03125 -1.171875 9.40625 -0.613281 8.59375 -0.21875 C 7.789062 0.175781 6.867188 0.375 5.828125 0.375 C 4.890625 0.375 3.929688 0.242188 2.953125 -0.015625 C 2.703125 -0.078125 2.554688 -0.109375 2.515625 -0.109375 C 2.410156 -0.109375 2.269531 -0.0625 2.09375 0.03125 C 1.925781 0.125 1.753906 0.171875 1.578125 0.171875 C 1.234375 0.171875 1.007812 0.0625 0.90625 -0.15625 C 0.800781 -0.375 0.75 -0.664062 0.75 -1.03125 C 0.726562 -1.519531 0.695312 -1.914062 0.65625 -2.21875 C 0.613281 -2.53125 0.550781 -2.882812 0.46875 -3.28125 C 0.375 -3.71875 0.328125 -4.003906 0.328125 -4.140625 C 0.328125 -4.316406 0.394531 -4.460938 0.53125 -4.578125 C 0.675781 -4.691406 0.828125 -4.75 0.984375 -4.75 C 1.117188 -4.75 1.4375 -4.632812 1.9375 -4.40625 C 2.40625 -4.164062 2.828125 -3.972656 3.203125 -3.828125 C 3.585938 -3.691406 3.957031 -3.625 4.3125 -3.625 C 4.539062 -3.625 4.734375 -3.675781 4.890625 -3.78125 C 5.054688 -3.894531 5.140625 -4.066406 5.140625 -4.296875 C 5.140625 -4.515625 5.039062 -4.6875 4.84375 -4.8125 C 4.644531 -4.9375 4.234375 -5.097656 3.609375 -5.296875 C 2.492188 -5.648438 1.703125 -6.148438 1.234375 -6.796875 C 0.765625 -7.441406 0.53125 -8.289062 0.53125 -9.34375 C 0.53125 -10.832031 0.992188 -12.007812 1.921875 -12.875 C 2.859375 -13.738281 4.101562 -14.171875 5.65625 -14.171875 Z M 5.65625 -14.171875 "/></g></g></g></svg>